/* XPM */
static char * cobblestone_xpm[] = {
"128 128 75 1",
" 	c #191919",
".	c #242424",
"+	c #262626",
"@	c #2A2A2A",
"#	c #2D2D2D",
"$	c #2C2C2C",
"%	c #272727",
"&	c #292929",
"*	c #313131",
"=	c #2F2F2F",
"-	c #303030",
";	c #252525",
">	c #2B2B2B",
",	c #2E2E2E",
"'	c #222222",
")	c #202020",
"!	c #282828",
"~	c #1F1F1F",
"{	c #151515",
"]	c #1E1E1E",
"^	c #232323",
"/	c #1B1B1B",
"(	c #1D1D1D",
"_	c #212121",
":	c #323232",
"<	c #333333",
"[	c #343434",
"}	c #353535",
"|	c #373737",
"1	c #181818",
"2	c #1A1A1A",
"3	c #3F3F3F",
"4	c #3D3D3D",
"5	c #3E3E3E",
"6	c #3C3C3C",
"7	c #3A3A3A",
"8	c #414141",
"9	c #424242",
"0	c #434343",
"a	c #444444",
"b	c #363636",
"c	c #3B3B3B",
"d	c #393939",
"e	c #171717",
"f	c #464646",
"g	c #474747",
"h	c #454545",
"i	c #404040",
"j	c #484848",
"k	c #383838",
"l	c #4A4A4A",
"m	c #4D4D4D",
"n	c #494949",
"o	c #1C1C1C",
"p	c #4B4B4B",
"q	c #4C4C4C",
"r	c #4E4E4E",
"s	c #161616",
"t	c #101010",
"u	c #141414",
"v	c #0F0F0F",
"w	c #4F4F4F",
"x	c #505050",
"y	c #525252",
"z	c #0D0D0D",
"A	c #111111",
"B	c #515151",
"C	c #0E0E0E",
"D	c #121212",
"E	c #555555",
"F	c #535353",
"G	c #545454",
"H	c #565656",
"I	c #131313",
"J	c #585858",
" .+@#$%+&$*=-=;&#@;>$&#,@>+'+%%);$@!~&+!%!{%>$']%+^!!.'./))'^;%)~%%.^()_!$(;:#&*#=~&@!<-><<[<<-;=}|.;@--;,1-$$,}*,*=@)&$@%&@+(^2",
";334567889090a48808ab!ccbd|}3904564c676c73e000faghagagaa89i99i9&&5673jj0jjikg0lmf9f8$.5453c533474i7b388350(i833agjgfab5gfa004bj&",
" ija8439999880a090a8}+093i54i998c733454566 i9i8anf0jhgaffhi388a$&cc40a9aa0afahhjgff9,^3833d70ic665985538i3oh8i0hfjjfajhjaahajgh_",
"1400fa0ha000990a889a[.a333ii8i865485434368/69i30fjnjn05fjf84390!>56330a009a8a0flpjnh=_3|8i98336k4ai3655308oga9899fgffhjaa9jhplg]",
"_ihg8hh9a0ah998a8aaa6$554354530c454543333io499999hnl9ihh009488g+@368fjf8i9984fgmjmf8b~-7a0a53345888i4339ii/hi98i90aa90hf0ajagja&",
".iihh8fh9h0hi0h9hhah3-54344383346667i65536]dahi4ijpj00fnaahfg00>;63ag0f9i898ahjpajnl4/4885533438ii835583992jh0haha0009899a9gaal$",
".0i3f0hha9ha809a8h8a|,4555333ii583cc854ii4(49hh9fjng0fplfjggh0h=.5fjaa9jnn99affhlflfc)38i8iii433i335535i3i140hhaa9a8ii9aa0a0aff-",
".38409ffai5i8900a809d#454534i3353540i66ii6]3085agjh89afajaafjha>!0gff9nlaghjf9fanqpfk~65i98i35955i535339a92kfi989988i909hh0a08h@",
";3560a0i0a80hahaf0a97&54434d6533i8i0845335~6i89hh0h9090aa999800%,ahh9ajafggfhagjnqjn4/3i44489538365383388h2ii80i33i3i90a0a9390q;",
"_84c39930hhahhggh090c;343437648iii3i34483i^ii989hah030ga98i8h0l%@3agahhhhah8hh9apqqj6~6435cc33i6i4ii56i38he099353643889if9i9a0f[",
"+38380346809080gaa9a}^6i53534555iii35553i8.60i88hhf980f0h8590a0-@0h900f0f9g59hlqmllhc$c67i565345443935c34i/9h89ikdk58890a88ah0a[",
"'3993f80099a08aa08a8[!45574i354ii934446453+d0900iff9300a3i8fh00*&ha3fg03fh0j9aqmnmjg:@c6cc6445ii45i8i34i33]a00936ci95i9830hfhff:",
"]i89g00a0a8800098h90}+7c564i43653844464664'799hahgjgfhh89888h9a<#0ihgjf9hjnpnrnlmhjgb;i7764563557i808i3380(gh884645a9iha09hhfgg<",
"^388a0000a3850900a9a}.64d6i458830icc74c7c4;d0hhnjfajggaaa05hgah,;a0hgfjfjaanqnnjfa8ad;5434536c643998838808 0a34665550aajhaaafh9[",
"+i4908a0900838ahfh98[.6c44i55i388567dccd64;|0aljf9hngfff09ih9i0>,njghgffff0ghlaf909a8)c65884c3944i45099a83~ii8c663i38iigii00a0ik",
"^a9h880898i380aff8i0#^6i5i95i659i666ddc64c.7gjjgghgjgjfj9a0ffah>:fj90ajhghhalq9i989f8)765a353808i9885ii8ii+34i434ii5iiaf09c5i88}",
"!a908900990980hag0807_36ci883i38954ckdd667~cgaf000agg0ghgfjfgj3)*fj8g9hgrljjqjafai993~33i8538980898i38i4i5^i9ai9i9ii8530j354589|",
"+8568a98988ii858haaai/86c84454ii35i67k76cc~6hfah0ggff90fhaahnjg%#0agi80fpngjflff98394]33889a0h08998559a853^aha833i38333389idc9hd",
"%3i44i0iiii35548aa8i7~4i5i44643345388767dk)<flfa98aa99800gffhff$>h00h80ggn0lhjlgaahac(559ia909ai3ii3889846_6h83435i8834668h343ab",
"+833533i7554675539i5<.446645c745644c6dkd7|.[ff89a80a09i899380gj!=900hhgnjmn90ggflnff3o6439i0883i3ii8i89i35^498638353i55669i93ih:",
".<*=,#[b<<b:*==,*-=<*_d[bdc47k}[k=,,,-,,-#(*--k34k=,<64454dbbb4_+kc}<<bk<ih5|[|7b*d3[/|7bdcckc454393cdk75c;7d463334535i4c55a8b:@",
"'^]/o es1{t11 (u12]/oou1s1]/ oo1]%%$>$!/^&+ ~)( ]_~]]s(/])oo2())]oo{122 sev~// o112]~''.'~;%++.]^@#>!;!!&&#@%%!@,-,@&.!')o(  (]^",
"hahahgqfnn{kmwqalmqmxr3rqlm3hjn>}rpjprn0rqylwwwrxqqq8onf38gfjnngnlh0jpjnpl{nnf8affqmlqpgnfjjjjj=,5333i8i0945334666444#7339n5dljj",
"a89809jmll{:rjmqlpjnnrrwrfqjjgh#|jjgmppmgnrpqrmnlpmg6~0hg89jnljfgf0ajglgggzan99g0hjpllqhhgjnjgp$*ii5833i8646533446647&7ia0afahha",
"5a8hgffqnfAayBqnlqqqlwqmqfmjpjf!dfhnjpmngjmnhnpqlmqp3(85ihaafngjlglghahfnpufn8ahi9fppmpjggfjnmq#[533i554i463985566447.500fgja0h8",
"0aa9fljxmavqrmrffpjlnprnqqqqnnn$}fnlnlgnghnpjjlgnwlja~3c0ff0aafpnfjjgfhfgqunmfg9a5iplrrhhg0gjmj&:83i353535i9ik344664c.f80ahffg98",
"c4a0njmqrlClprrqgmljjpqprhpmljj+<jnrljl09ggwywjjgljnj]ic98ajn8jll0ggangnjwtlnfa88ajaqqrljfnfnqf,@ai3545580i89456c544c;ga09ajhj96",
"89jfjnnjpwthj0lmpgqmqmlnqqgqjpn&*mrrqljnggjnfjlqwlfla i8fpja0gffhf0aglnjqleah0gahpjfjlwwlnnggja#*9i33ii45h89885444ci5.0a93aljja9",
"90jhfgjgjmv6j09gppmmqjplplnjllq%>pmgglwqqhafgngwrghjj 3ihnf38ja0aff9ajfgfnufgfhanlnqmnjjqlgjlng+<33567c39j890ii445389.a9hf0fjlfh",
"fjlqjh9ajhCkjq0hjqrnnmqhhfnnjmp!$qpagjpmnagagjjwwr00j(5ahnj990fnhf8affjjhmAjqmqnqppxrllnjpjxmhf':ii365i0gh00i33i46a89)hahhfhpgf0",
"9fjgqf80jqtcprgfjnlwrnfflmjrhlm+}lqhahgnnnqr0hlmwrnjg]00anqj80haa96anflljlubggxljrrqlfpnnqjlffh),08i3aaa9f8i56c6d680g~099ai0n0nn",
"hgjpnlhhhjD4mlBmanarqmmhpllqqqr_|rrph9ljafrnggnqmqgjjo8hgfqj9g0h353jjfnfjg19wmmBqlpjhgjnlnnlff7.,40889i58i9i467c3368a_ahjfhajg0h",
"98nghnfna0AhqEpnjfjhqxwrxjjpaqp_|g0jllqnahhqrrprpghif/0ahqlgag98058hfjajpjv9prqyrqgpljqnnl9lhh6!*08fhi64ii9086dcd7343(j0gfh00q9d",
"80jg8gjjgaAqynwnqlqrmFyyxgjlwrq]d9annnpph80mwnljlnl00(ajplpggf089gjjjffjpqsnlqprmlrmlnplpnhr54d@@0a998985309a87ck4c3c^fgjj09aa08",
"aafpjhhggnCxmyxyxmBmmFnjqwrwqrm1b0hfjqlp98glfjjqmfaj7oahfljaf00gfgfqjfjfhp1gmlqrmBlhf9gnjqmqh97!>98g0aa05998904d63443.ahfagjfjhh",
"hffjj0fgjjCmrFxEEBwBnywngjpxmyp(khjgglng9pGjippqnf0gm(fja0a9la0ifhfqqqngnlvghfpmnmrnfajpqqrmfid@#i3000a3ii5a00i3i6645)hhhfhffj09",
"9aanagfhngAfpxHBwrxrBFnfnljqqxh2:0ahffprprplrnlppfjlp/gg8i80850i0fhpqqnllnsn8fjjjppq9jmwxrmqp0c#=589afi88i0h8099063ikoaafgai3558",
"9ajfnqffhjI'BxprqgqxwFpjaljnmqp/4nggjhjrpByglgjrrjrm92hg6638i3afha0lqwmjngeaaf9hnpjnrwpnqrnplj5=-i9i33386308000898355)0a90f5i3c9",
"ahja9jgfhjI%Jwlrwqlrmmmqjnnqqmg/9pmjllwxnqxymnpBylwwj/0ia3i4390a93jf9ggnjheaaagjgjffpmwqplqqjn0:,85ii5i09f0faa0f88334~a08hjj563f",
"0aa9afhnjjA<FBlrmnmxplpmlmlyqqn]djhggpllrFxjpppxjnpxm/h3a475i8i005jpjwnqgg188glpqjfjjpnjlhjmrqa,,i0i33558fa0gglh00884'ga98nj98a0",
"8gjffgjjgl{fmf[46dgmjllpqnmrqln_}hha0njpqxxxyFwBmrrwhojhjai839fpjnprrqlpmB143jlqllnlllrq0hnqrml-=4805i88ajlngjfgj9383)0fahnj0438",
"9jfjhafjpjuaq5:7d<dlppwjqwppjlp.c990fpjpnqg$BBm&7qjlm2hnpqpf0ngfqgh9n:<lmr{3fqpplplqnjh04fah0jj-#8808800j|4pfff5gh330]:ajlqgn8jf",
" uICvvttustII{ Ie1sDess/]_~1/ooA2)__]1ess /  11  ~_~/12o]2 ~(]/ ~~/1s{  {sD~..;]]]___~2e_;^.]~+]~@&$;%+._oo((__(';+%&~_;)']2)/ /",
"#nllrpfp0!:7n898i:k5io9n0fha8}4n9a38087a49+bc745bd474*69d8aiahg!*ccc64[c5[|kkkc8035i9^8k}k<}dck|bbd4398dk3/4c63i53454c4|7:*|$,:.",
"@pagpmmwwxGmpnlnllrl6onn88jllgffa0aa3|344h!di3ha89afnrglfn0hggj!=77c59990aa0h0a05898bof83i4893098999a809ii~i467c5i444854c645c47;",
"-qfjlmlmqqrqpjghqqnngena88jjjfh083af888|58;|9nnfa08pfhfql00aafl==}k433i00aai99aa584i5)fa9358iii938533i9863+56c|c544468i33576c5c;",
">pqmfqmpjnwqmqnjpnpff]hjha30lha00jhfa9563a_:lpa9gqnf80gjjf90iif#$|6545i90haaaai98ii3a.iha0335i833835389934.kcckc45536i365566333%",
"@wnmmgjnmrnqwljfnjag91jg80hgpff80aghna8k0i;bgj9gjaaa44ljfjfha0j-,33458i0h090ha90a8i88%aii809i0i453553988i3@=c63555i9808i6k7c3i9&",
"&gmqmfqplGBrmlgnljpg0/hgahjha9hgfafafa85f0;[hhfhhfa95ingjhnng0h,@4565i8050a9ha0h0999a.80i88a00558395ii8839>*cc4c638iiii86dd6i94!",
"^jgnppfpprpmqpjlljppnoffj885aahh0faafgh8pj/>nrjjqfhh9iaqjflnh89!%545380a909hfh9aa090f;9i8380h0580338i3i8i8&354cc5ii948909389354_",
"&llqrrqpwpppqqjlggpnf(fg0gj8gjhaaagahhgllf~}Bwfnlhgja00ljlnnpaf$%886ii8089a90a0009i0f;0530883988a0i8889043^i565c6i9900i9i09ii44~",
"#lplhpmxqmmlmrqnljqph(0aagnjfgffhg8fgfmmnp)bqnpqpflljglfhgffpj9,$3i4i33i888308900aghh.h999880fh9i8aa888085)5c59480faf000a038i4c)",
"=nqxqppwqnfrrnqwllnpp(afffhjngag0aafaqgrmf)[xpjggj0fjqnfgqjjhaa,,i80i8669a9a0f0aa98f6;080i90f0h98aga08i08a_|d755558a33998i98537^",
",Bxmywmqqnpppqprmqqpg/gjfhjnpjfa08iajnjpmn1=wnlgngapplgggjfjfgf-#i89946i9aa900a80880&;88890i08ha9a99888830'7c43898i38388ii33034'",
":ngplqrmjrjnwnprmrppg aajgjlgfhagnajjjnnjj]}mpmxqjqjpfg8fahhjga%<33hai589a9a9a0a9ii08.i9890390aja589893035'd8ii035543880990934c'",
"*jnnppwpwpqrwmnplBwjj1fafhjjhfaajmnjqf3nhjodxwqpplalphh0ga90j0p$<3ahah898f3a9a00a589i'899ii0883agi90900833_d885iii5448ia8ih3547_",
"<gnjnlmlllpqpwxlnlqnq(anfhjjhhfa0lnnpfhhhf1}xBpjlf904f3hnpa80nm#,48ahf9ii908909h0a9a5)99988ai9989gf09i6ii5^d3598i348ii809095537)",
"#pfplpgnppqrqqwplqjqB]nh0jffjf0g99gpqfhjhh/#BBa3j0a6imfaa5a8gjj,=i980ii455880f0389hh4'9988a0388a0fj8856459~698ii3i8i3i88i38i544.",
":jgqqqrnmmqlnqqlpmpnm~fgjjjljhfhhjlqlpfqlj(5rlqll8349ggn8455hgj,=00hfh908i90af0880fh8~833888ii39i09ffi3339^}i38ai53830aa5534536.",
"*lnpmnlnqpmnmqqpmpmmq~fnqnpjffhajmlqqihnpqoknnqpqxl58gnh9070fjn#-6i8aiaha89fjf09ihhh8o9388i4388883i9nfi38a)555938i839899539ii56+",
"*lnlrpggqhjwwpnwljnmw(glpppnpqpnjngwnjjrgl/dnnrqmwBn0gh340fn3af>:9i6a0000a9f0agg08ha5ea98095ii0339aalh8899]9588iii3i80989i333c5!",
"-npxrpgpnlmnwpqmlqqBlegnfljnhgjnjqwxmrpqmq1<jlrpryqpjnafljhgwg9$-h340ha0f09088a0i4584 a09i0089890389na0aai(65i35iii8900i89iii6c$",
"/hlpmmplnprprBppxmqqnsjlnahaanhffpqlfnpnqr)=hhnpj8njnmfqnmljpjp,@a40gf098ai55i885c444~3ik9h000h3798399508i)|c764474569989i88a85=",
"o@==<#$=$&&%!>#>+,-*,e<[[[<:<b}}=!!%=}*[|*o)>$$!.{$=,#$-:}*=*b<;%@5c4*6k<bb>#,,@@>!@!s._e!>/&,-&2&%'^)^+;;/]+;++.&>!%;_.%'^^&#$]",
"#>,@>#==^,e'-$!$!&!^:=@'&!,+;''/2''>#!%+(]'._^!&!.^'~2'^_'.^'^'%%..+!&-#:+(d}$)-[d47b,:6c7c56k}~(+@-=,&;#>!@,$%>$&!#!sb;$-***--,",
"hffgl8ajha]-8a0ha989ajfh8ii0898,;7c7|kkd}d634i8i54447)<[}|k|bb|d7d7454500k'jridfjf8f8ffmlmpnmla@,llmrlfjgafnpnfmjgpx[elnfgjnjjaj",
"nahjnafhaf)|0aiaa0398gja00aaha8!&7ckd77675i38ii4i3437]kd7cddkc7dc66c65543c)jmwqmlnf0gjfjlmqqmjj&!wlplqgahafmqjjjnwBr8{pqgjghhaah",
"0gjnfnfg0h'iah00a0a90ghff9agh08.%3864c6658i9iii5i535|'6446cc6ccd3644i6i44k_fqmlnllpf0gnggllnqln&!BBqnjnjahjmrqplqBplgDqqjnngfaah",
"fhfjapnfha_k3ajf009a0hjgghhgh08^%c34c66539838333883i5'65464cc646i935333567(jjqqgpjjn00fgjnqplpj,%mrnjqFpqglpmqpqpxjpaCnnpnfhfhjl",
"ggf00anjgh^89afa9iahha0afqngji8'#34664i35338345iii889'6446ccd7cci44459i7d|]jhgljhhlnjngfhfgpplj,'nnqlnwljqlqnlnxwqhpfspfnjfnfgnl",
"ggfffhhlna'4faaa089hffanjllnh*:]#85cdd93885333558938a;46467c676955544i356k~qj8hj0ggmjffjhgnglmj=]hjxqpglqmgmlxqlpqgl3ejhqpnlghff",
"hagjffhnjh^c00ahh090fafpg9qph7=o@337655093533ii8338i9.44346676336i943i3867]np30fahfjxpffhjhjjpl#(0fpqBjjpmlqqmjqnqgjf1lhjhlfhaga",
"jjghh0nlfg_8h9hhh00ihfhjhfljjf9'&636566i9i45ii983i85i@5446464897339ii44657 lmnhfjallmpnafn0ngpp#+h0lBypqmnqwxqlqmqjmjofjjjggga09",
"aahgahghaj_6a0faaah8a0jag0jnphi+@i43icdc43i33598i33i3^5667c43a94i8ii34c557(rpmpmqgjnqjljffllnlh=!0gqmBggqmpBnjwnnpnlh/gagjjhjqni",
"aa90ggfjaa]a09a80ha9afjjnnhhlai%%93556|755c8339ii3iid_36c443ii99i8345465ck]rqrgpjpjpnmplgh9j0f0=@9lmmlpnpxmmxrxrmpppjogajljglpjf",
"gjj9njppj8o09899ha9afggj9hafg05%&38844k744308i09955i9o5653533i38354564i37b2qxlmqmlrxBngpjjf8j03-;0hrxppmqxyrqmlxqnpnf2fhajln0gap",
"jhjnjglpgh/3058a0g80ffgh0hahf94$=53icc6c5499550a95530)343iii83354644cc567boqqmwppnrrnqnhhm98j33-%fjlmahgjmrggjnjnpggh29h0ghnhhpg",
"rmmqjhnlj0~5a3i0fga0ggga3aa0hi3,=4660i688ahaici909i5i^3ii80ai4644446676ck}/qrpmpjjgngnlpjqljaf6#@hfgmfalljBplnhqgjlwh2hhjjghjgnx",
"pqlpqgnph9~i0099afjjjg0099aah54-#33i9098i9h09ii988i89;3ii88i3354446cc76db[~mhgljpgj0pjnllqrl8h5%!ajhfljhgqnqglhqqjlgg]fflfhfnqqr",
"qlfmqfm9b-_k9a930ffpffh0a8ag04}=,i8383i380830a0i8a8i9@099i43i455545c6c|kk}~qffagnnjnllnnpqmmah9!>l9nhxrjjmprljhjgg00g 0hafhhfnqq",
"fjgnnlpn5|]k89909ffpnjff00iiai6=*38ii9364i430a9948iii)a095464444464354cck[)nllffjgjlhnjhjppmpn3%-FqhEwqjrmlwlnpjjnfna10hf9afgqnj",
"hgllffjgjh_6ia300gjjfgfa0099fi3--653303653i8aaaa80333_a99564554464c44356k['gh0qn9jjljlgnnjpqnf5+@pqxBfmrgnjnrlhgqhag9e9aahgfgjln",
"pfhgfgflfao499009fnjngjf090a009>$6648946c3388ii093ic5#98054455iccc6c4536d[.a09mfjxrjjnjglnqqmji%!fnlrmmrmqpnlnmpjlnji28g9fghjafn",
"jfahfgfnja 6ah803annnngh008i0gf;#k6335i673i85ii8a856i#0a095895446d66c43cd[+jlppgprrmjhfjlpnlwnh!#fjplnpmBBqngwjnamrp0ehfanngffhh",
"a06i580afi18hfiaa3gnnnfaa88i8cc;&,-k55553565i8338a95i>003445ic44677d7dkkb<&plplpiqllh@np3aggnnf$$hhahfnllma3hq8ahj0f, i3hai649hh",
"u1 (o2]]~(_oo//(](.;)2/2o]~2/o/()~^)oo]])'e]/''^)_.^)+*}@@!%@$,=&>!+^%.'%-^;;;+;^+%;;2'_^^'_.+@%( {suu{s {Au{e  2/22]''.]_))~))2",
"^mrplpjqljlnpjjlqqmmiohjjjnjfaahga9999ghjp)9i48554355i}38334444:6j930nlfjnc488880i89h~ga0aa375886i5393433d2<|[7dd|c4i553i58393i,",
"=jgpwqjgnpnfajjnplhp02fhggnlfjfga90090a9an'3iii346335553i3i464d:bjgffngplg49ai8a9808h]ga908a555i333098i909(kck544c680ic4iaaa00i-",
"-lnqgwmnplplgpjqgjjq}e@fhfjjagfi000hfhh0hl~5iii9993ii6639i446cc=*npfanjh0a80a5309a880_fja9i59a999i5gphaa90)648595550g0099i5i9h9#",
"-qgpnqrnjnppflnljhglls9fhffghhna00aaaaaagj]6i3i5i9iii5463364655$-jnjnmqh8jh90909ha3i8.jjh0083038hi63aha00h(68888a09i009355i39i0[",
"#njjlrBwphnjpngjjlpfl 80aalpphi8a00ggaaghg(76564i833855i3i64553+:ngnpnhjffffh9hgjhgfi~anff959088gja09jhgaa]33393980a08i365hf099<",
"@jjflmwmlaaalnfjnjlffu00ahaglgha0aaggafagf^<45466533ii353563i54%|fgjf0fggnajfafhfh0f8~8aha8558jjhf99jgjfhf)9889899400395i5a9985[",
"%ljnfnmjlf99jjgngjnghua9f8anpnagfffffhaggf&>i344c7450i543453ii4+7gnjffggha88a09jna89f_0hgjjai8ggafaahgfhf0(i339899390h883099893*",
"%lghajmxjnlnhjnjnljnfAja09agllhngh8h00ajah%733646747580i85i8i5c^chjnhh0hjfhnfa8g0800f.hhafjggghhj00aggg0fj)354ii855080f9008i893:",
";gjjhpmwlprnnlnrqplf01af08gnjpjnaa093aggaf+d65c545c6i3i3i45i547+dhgj0aaaffllgghg80aj0_0989fqgjghh0hhfgjggh^6ii6444i088ga05i3008*",
")gjnhngxrmpmqlllmpja|1a090agjjqnfaahh0jg8l_776c54i55i8808334467@bhaffjhagqppqh9ajgfgf~i8agjnnljhah0009hjn7'3i3338839aaghai8880a-",
"_njlfjlnmBrmwrnqmqpj| 0099059fjgjahhnjgfjj(d666635i39999353666d#'ghfnfnlfjgjql90nljjn)0ihff0ggja0hh0ai00jf;55333833080af009iia0:",
"]jgjpprqjplxmmqpljgj}1[g9hjahajhppgpjjhafh2b7746445ii83i3354677,%jjaaafnnfgfpjfjaaannoa09ai9gfa080aaa98agh@d984ii8838990888iii3*",
"!ngnpnjmjljwxrqj0gjl3{90hjffhh0aplrnhff0hh]|kd6764553i65i354cck#%j0ffgjgljfgmlj38hngl~ag988hhna0a09aaa8hgg%3i83i838889aaa88839i*",
";llqljqjmwnnmqjjljjfa jahpfggaa9jpnf00ff90_bbc66c44655i539667cd-#fh0ffhhfhgjjrmhn8fl9ocg089l0gga8ih9088ggh^888808i4i4538h908855=",
"@qnnnngjnpjfmpjjfnfj7)ganfjafhffjnfhg8lg09'|k5i36444543i5ii4c7k#[gjnggghhffghlgnjjfff]4ha00hhfafhaa080hfgf)d909883453848aai85ci<",
"#najhgjlannjphpnfjqg4ofghh08a0fjhqnfgnnhi0_dc4c6c6454c535554446@<gjjhnjnghahppmrnpjgjod80gi00gahha988afgaa'9098i556483880ga6c8h^",
"$pnlqgngljjlljppjggh91fffa908a89gjjghgffnf(766cccc44c645i3366kk>}qpjjjagfhhljjff0p0fg]99fg88afagg0aagfjgfa^99883689998i00h8i63f=",
"=gjppgjfgnjpnmpnjghj5 ajjjgg9h88gpgajh0hjlsbc7kdkkc7c466466777b&<nnnfhafg0fphgf59ahpj)hffgafa9faga8ifaffah;k9985i309383095i8ii0-",
":ljqjgplpjnpqqljfjggi jjh9hffh9iaffaa0fgan1}7k7kbkkk7c7ddk76|b<+}ljjg0gfgfgg9ff0iihppohjggaha990fhff0aafga;3i3838iii898983c3898>",
"#anqgnpjkjmqrggjljnj0efhfggn0afjlpgfihgffj/<bb}}[}}|7dc7k|db:*-.bfgjgagppjlahghh9a3i8.0ggjaiaaiaffggggagga^33833i5580ii46i465ia.",
" oes(%( 1](^(~;^%+..%s))_]]]~] 2e{us22s 1{I2/))]~')]o]/(o/o)/(/s2(~o1(1D o~']o1('_'^.^,>;!._!+%>,!.));+%%%2;+''.;)^;]/~_/2]')^' ",
"0309fa03i3':bb|dk|b|b|}<<<[}}b:'dqqqpqjmnj9dgrppgc9pn <0ngg0gn05bk49f4i984(=77:=:-#:dci89364|||$!|}iic7|b-@<<7d[!09a=)959f9agffg",
"f908a90i5i;}kc7cc777dkkkdc67d|[;}hgpmmpBrlgagjlqBpljj1$agnqnaqllnpn9gjgj0j278557d7468aa085353i5:%5i0989i88i98i0aa590b)38i9ahhha9",
"0hhhf9i838;|d7666446c7dcc66c7k}%:ahlmqqlwnjgnjqpmmgfgI3ffngjpfjgjnjnjnf9fqe6i4546c58fhhh8344i39*+9i99i8i43i99a0335i0:'0i9a800a08",
"aafja90a8i&d46644456c6c644c47|[+|npqlmrhq0jjjpqngqjj8A3h0ga9npjjllifhgg09n 74i35d590990a0849889|;i8ii3i34488a09888ii|^a88hh9909a",
"i00fgffjaa^c5743i67cc554536dkk}^}mwmlgfghgqpnjafpjpp5Iafhg8afpjglhfhjjfghlo44i8548889a330hg0880}~8008339948900885435|'9i50h0i3ii",
"80i0gjflj3%67655834c643iicc7ddb.|lmqmwnBmpqpmjjhjllrqefaf000anpglfjfjffhnp~76438445i5333i8i80i4-'08g0iii9a90h055i344b_98000084ii",
"i89affhgf}@<4355536434i88445ddb'-jlnnxqqpxqppjjfj0hlxenfaj00fpllhmn0h8fnfj/k555i3c5i35884443353*^90008080a8jaa085343<_fa98i98808",
"9h899a9hg*%:3383888480i5353567d.|qgljgljqmpmjnpjnfafwsj0h0hjjjjrjnfja8fga9(k563445358i3i36ci3c5*+3ai8fahffggg9983383-]hfh08830i8",
"86359509a8;-5i833i889335453366c;[ajrq0qrnllmjlqh8fa0g 9a00gfhajlhqgi9jfhfi/[36547589i4445555855@~008a988809aa88i3i836]09af883338",
"i33ciih0ah.*i855i64533ic7c76646.<flhhpjBmpjgpjnj8ajgne9hhhaahhgflfhjpagflh1d7554465i8i56445588i;'80003i9a909ha9850a03o0809a989i3",
"9i3i68f0h0'-i3555455433dc5d77cc+=fjljnqrqmlllqqlnjnan j0fahhhlajjjjlj0glgg2635cc663iii435855354!;i9ha0809a0i0399a8i53o9h9ah98a5i",
"h03i399hhh^<3i53i4464556445766c+=nlnfllxwqmnfnlqgjpjf]f80hffnjfjjlgnpjljj016i5cd6454483i3536535$@9i0983998a9i3898i556~ai0gga0985",
"h094ia09hh.}543354544535444i356%$gnjmmpnnwjn9nqpqjmlp2h9i0h8fnnnllllngjfqn/b56c7764454338035i34#$3438i09i33i89i09i4i|~ai0jghff9g",
"998i39h0aa^:7534344334445444466;#jfjnmrhjppnjrljqqqjj/hfa88fhhppmmqlppfgff2bc5i65i644433308ii46=@84333083i8a3iiai858d/a8gnaaaa9h",
"aa8aai9a9h%*c4334445544i4c46644.=jgfjllmmjllrmnfplnmg2f0aic7hjgwaqqnljnpgj d66543i3553353i8855i:!83336i8598h980938i8i~0aj0fa0i09",
"9900h08h9a!76555366644443544664.*lajgngjxpqamnlqllpr9 0j9i4ahaqpqxfflnganh(|7d46433583483534455:_8883c3990909088008i6~gha008hh0i",
"0h99980fah!6544344664445336646d;[f0nnjpgmmwmgqqqFqfq42jqnf8hnjqqxqjllagjfl]k5455548ii33ii465454=+89ii3i89f38899890585)hfa0990ha9",
"aag8i90fgj&6i446464454458854637;*jjmnlgfjrlplgmpxrpri(a0fpggjfaann0fh0fa99_k4c3564435i339i54334#.3i89809h0838i35ia636~g8ha90ia80",
"95090aahaa%i3444563i34754i3646d;[jjlgllhghpmpqjfqqBi<o8anjgi950hlpqaa00aag)|5584354535559i3546c$;588ii3i3538i80988894/h3h300989a",
"a99i08ih89%7534534654944c833566;<jmllmmmfllllqEwlqmw[29fgaai75haaafpn363jj(746674464cb7454ii844=@h084665i4i460f93i888]9i0a350434",
">.,&$===#@.!&@#==*[*@-<[-$_}d=#~>}<}*<*,:k=[<>&_+,}:!1!><$=,,-,#$$>>),*$,>e')._+&&%%=#$#$,@#-,$+'&$#-=#&&!@!&._;%.%&&{#=$>>->$#*"};
